<?xml version="1.0" standalone="no"?>
<!DOCTYPE svg PUBLIC "-//W3C//DTD SVG 20010904//EN"
 "http://www.w3.org/TR/2001/REC-SVG-20010904/DTD/svg10.dtd">
<svg version="1.0" xmlns="http://www.w3.org/2000/svg"
 width="500.000000pt" height="500.000000pt" viewBox="0 0 500.000000 500.000000"
 preserveAspectRatio="xMidYMid meet">

<g transform="translate(0.000000,500.000000) scale(0.100000,-0.100000)"
fill="#000000" stroke="none">
<path d="M2647 4649 c-39 -23 -47 -61 -47 -232 l0 -164 -126 -83 c-137 -92
-174 -127 -174 -169 0 -46 34 -78 207 -192 154 -102 167 -109 214 -109 119 0
282 -52 395 -125 80 -52 209 -184 269 -274 93 -142 157 -325 171 -495 6 -66
11 -84 33 -107 25 -27 41 -32 90 -30 17 1 68 44 171 146 80 80 150 145 154
145 5 0 81 -61 170 -136 88 -75 176 -143 194 -151 30 -12 37 -12 70 4 57 28
64 51 58 179 -17 336 -125 661 -313 942 -301 449 -765 752 -1292 841 -134 23
-216 26 -244 10z m430 -464 c98 -20 174 -49 269 -99 89 -47 210 -134 259 -185
l29 -31 -68 -69 -69 -69 -69 58 c-125 105 -260 174 -396 200 l-62 13 0 98 c0
114 -7 109 107 84z m917 -812 c21 -59 56 -169 56 -180 0 -2 -15 -1 -34 2 -39
8 -62 -2 -116 -51 l-38 -34 -16 65 c-9 37 -25 89 -36 118 -11 29 -20 55 -20
60 0 6 154 84 172 86 3 1 18 -29 32 -66z"/>
<path d="M1895 4598 c-374 -97 -670 -268 -925 -535 -120 -126 -197 -229 -285
-382 -217 -382 -295 -859 -209 -1289 62 -314 254 -662 604 -1098 89 -110 303
-373 347 -425 13 -15 8 -19 -53 -39 -80 -27 -136 -74 -159 -135 -14 -34 -16
-71 -13 -186 3 -131 5 -148 27 -182 13 -21 41 -50 62 -64 69 -45 103 -42 418
37 156 39 298 77 317 85 52 21 120 90 145 148 20 45 24 72 27 194 3 103 0 155
-11 191 -8 29 -56 110 -119 203 -311 455 -517 880 -632 1299 -42 155 -60 292
-52 384 16 167 74 330 166 467 54 81 176 202 259 258 77 53 208 115 276 132
75 18 105 37 121 75 32 75 1 106 -192 190 -85 37 -154 70 -153 73 0 3 50 46
110 94 142 114 146 120 131 206 -24 142 -54 253 -76 277 -25 29 -74 37 -131
22z m-229 -632 c15 -74 15 -91 4 -94 -7 -3 -47 -22 -90 -43 -116 -58 -240
-171 -335 -303 l-20 -28 -83 52 -82 53 16 26 c76 120 232 272 352 345 84 50
203 99 213 88 4 -4 15 -47 25 -96z m-726 -875 l75 -16 -5 -55 c-3 -30 -5 -134
-4 -230 1 -148 5 -194 27 -300 14 -68 25 -125 24 -126 -1 -1 -44 -13 -94 -27
l-93 -25 -9 36 c-40 148 -61 310 -61 465 0 111 12 244 25 285 5 15 21 14 115
-7z m295 -1141 c25 -49 45 -94 45 -99 0 -14 -152 -92 -167 -87 -13 5 -89 150
-95 180 -2 14 15 27 82 57 47 21 86 38 87 38 2 1 23 -39 48 -89z"/>
<path d="M3934 2371 c-69 -51 -422 -415 -428 -441 -3 -14 -21 -108 -41 -210
-55 -280 -119 -525 -221 -844 -45 -137 -46 -144 -42 -246 5 -124 24 -176 88
-240 82 -82 94 -85 440 -88 344 -4 362 -1 424 68 50 55 57 93 49 249 -5 106
-10 141 -27 174 -30 59 -88 96 -163 105 l-61 7 70 150 c230 494 378 868 378
952 0 32 -14 50 -147 185 -218 222 -242 236 -319 179z m206 -360 c0 -25 -42
-131 -52 -131 -33 0 -178 46 -178 56 0 24 63 189 78 207 15 17 20 14 84 -50
37 -37 68 -74 68 -82z"/>
</g>
</svg>
